<?xml version="1.0" encoding="utf-8"?>
<!-- Generator: Adobe Illustrator 25.2.0, SVG Export Plug-In . SVG Version: 6.00 Build 0)  -->
<svg version="1.1" id="Layer_1" xmlns="http://www.w3.org/2000/svg" xmlns:xlink="http://www.w3.org/1999/xlink" x="0px" y="0px"
	 viewBox="0 0 128 128" style="enable-background:new 0 0 128 128;" xml:space="preserve">
<style type="text/css">
	.st0{fill:url(#SVGID_1_);stroke:#FFFFFF;stroke-width:4;}
	.st1{opacity:0.9;fill:#FFFFFF;enable-background:new    ;}
	.st2{opacity:0.3;fill:#667EEA;enable-background:new    ;}
	.st3{opacity:0.8;fill:#FFFFFF;enable-background:new    ;}
	.st4{opacity:0.6;fill:#FFFFFF;enable-background:new    ;}
	.st5{fill:#FFFFFF;}
	.st6{fill:#667EEA;}
	.st7{font-family:'Arial-BoldMT';}
	.st8{font-size:16px;}
	.st9{opacity:0.8;fill:none;stroke:#FFFFFF;stroke-width:2;enable-background:new    ;}
</style>
<g>
	
		<linearGradient id="SVGID_1_" gradientUnits="userSpaceOnUse" x1="-60.4917" y1="136.9417" x2="-59.4917" y2="135.9417" gradientTransform="matrix(120 0 0 -120 7263 16437)">
		<stop  offset="0" style="stop-color:#667EEA"/>
		<stop  offset="1" style="stop-color:#764BA2"/>
	</linearGradient>
	<circle class="st0" cx="64" cy="64" r="60"/>
	<path class="st1" d="M34,25h60c2.2,0,4,1.8,4,4v42c0,2.2-1.8,4-4,4H34c-2.2,0-4-1.8-4-4V29C30,26.8,31.8,25,34,25z"/>
	<path class="st2" d="M37,30h54c1.1,0,2,0.9,2,2v36c0,1.1-0.9,2-2,2H37c-1.1,0-2-0.9-2-2V32C35,30.9,35.9,30,37,30z"/>
	<polygon class="st3" points="40,60 50,45 60,60 	"/>
	<polygon class="st4" points="55,60 65,40 75,60 	"/>
	<circle class="st1" cx="75" cy="35" r="8"/>
	<path class="st5" d="M43.1,82h41.7c2.2,0,3.9,1.8,3.9,3.9v18.2c0,2.2-1.8,3.9-3.9,3.9H43.1c-2.2,0-3.9-1.8-3.9-3.9V85.9
		C39.2,83.7,41,82,43.1,82z"/>
	<text transform="matrix(1 0 0 1 42.9563 100.5469)" class="st6 st7 st8">WebP</text>
	<path class="st9" d="M20,64h10 M25,59l5,5l-5,5"/>
	<path class="st9" d="M98,64h10 M103,59l5,5l-5,5"/>
</g>
</svg>
